# xmcd
#
# Track frame offsets: 
#        150
#        6781
#        30302
#        45061
#        62354
#        80539
#        96580
#        109200
#        123240
#        139880
#        153505
#
# Disc length: 2783 seconds
#
# Revision: 0
# Processed by: cddbd v1.5.2PL0 Copyright (c) Steve Scherf et al.
# Submitted via: ExactAudioCopy v0.95b3
#
DISCID=800add0b
DTITLE=Greg Boerner - Wishing Well
DYEAR=2001
DGENRE=Blues
TTITLE0=Bus Arrival
TTITLE1=Wishing Well
TTITLE2=Makin' Memories
TTITLE3=Feelin' Selfish
TTITLE4=Deep Freeze
TTITLE5=Thing Of Her Own
TTITLE6=Autumn Breeze
TTITLE7=Two-Time Woman
TTITLE8=Someday
TTITLE9=Floatin' Downstream
TTITLE10=Bus Departure (with passengers)
EXTD=
EXTT0=
EXTT1=
EXTT2=
EXTT3=
EXTT4=
EXTT5=
EXTT6=
EXTT7=
EXTT8=
EXTT9=
EXTT10=
PLAYORDER=
